<?xml version="1.0" standalone="no"?>
<!DOCTYPE svg PUBLIC "-//W3C//DTD SVG 20010904//EN"
 "http://www.w3.org/TR/2001/REC-SVG-20010904/DTD/svg10.dtd">
<svg version="1.0" xmlns="http://www.w3.org/2000/svg"
 width="78.000000pt" height="78.000000pt" viewBox="0 0 78.000000 78.000000"
 preserveAspectRatio="xMidYMid meet">
<metadata>
Created by potrace 1.14, written by Peter Selinger 2001-2017
</metadata>
<g transform="translate(0.000000,78.000000) scale(0.100000,-0.100000)"
fill="#000000" stroke="none">
<path d="M231 711 c-17 -11 -20 -22 -26 -126 -4 -73 -7 -106 -19 -215 -3 -19
-7 -66 -11 -105 -4 -38 -10 -96 -14 -128 -12 -89 -17 -87 232 -87 117 0 218 4
225 8 14 10 19 31 28 117 3 33 8 63 10 67 2 3 -3 14 -12 22 -12 13 -38 16
-125 16 -61 0 -108 3 -106 8 3 4 8 41 11 82 4 41 11 101 15 133 4 32 5 60 1
62 -4 2 -2 31 3 64 13 84 8 88 -106 90 -50 1 -98 -3 -106 -8z"/>
</g>
</svg>
